<?xml version="1.0" encoding="UTF-8" standalone="no"?>
<!DOCTYPE svg PUBLIC "-//W3C//DTD SVG 1.1//EN" "http://www.w3.org/Graphics/SVG/1.1/DTD/svg11.dtd">
<svg width="100%" height="100%" viewBox="0 0 3508 2481" version="1.1" xmlns="http://www.w3.org/2000/svg" xmlns:xlink="http://www.w3.org/1999/xlink" xml:space="preserve" xmlns:serif="http://www.serif.com/" style="fill-rule:evenodd;clip-rule:evenodd;stroke-linecap:round;stroke-linejoin:round;stroke-miterlimit:1.5;">
    <g transform="matrix(1,0,0,1,-17.9786,-209.612)">
        <text x="1233.72px" y="496.202px" style="font-family:'Lato-Regular', 'Lato', sans-serif;font-size:150px;">Binary Ninja API</text>
    </g>
    <g transform="matrix(1,0,0,1,396.628,203.289)">
        <text x="2742.23px" y="2094.88px" style="font-family:'Lato-Regular', 'Lato', sans-serif;font-size:41.667px;">@carste1n</text>
    </g>
    <g transform="matrix(1,0,0,1,-414.867,-1237.67)">
        <text x="609.045px" y="1700.09px" style="font-family:'Lato-Italic', 'Lato', sans-serif;font-style:italic;font-size:50px;fill:rgb(139,139,139);">Low Lev<tspan x="772.845px 795.895px " y="1700.09px 1700.09px ">el</tspan> Intermediate Language instructions</text>
        <text x="609.045px" y="1750.09px" style="font-family:'Lato-Italic', 'Lato', sans-serif;font-style:italic;font-size:50px;fill:rgb(139,139,139);">ar<tspan x="650.845px 673.895px " y="1750.09px 1750.09px ">e </tspan>inﬁnite length and structur<tspan x="1223.87px 1246.92px " y="1750.09px 1750.09px ">ed</tspan> as an e<tspan x="1420.19px 1443.62px 1469.52px 1486.07px 1509.12px " y="1750.09px 1750.09px 1750.09px 1750.09px 1750.09px ">xpres</tspan>sion tr<tspan x="1654.94px 1678px " y="1750.09px 1750.09px ">ee</tspan></text>
    </g>
    <g transform="matrix(1,0,0,1,814.708,-1234.39)">
        <text x="596.187px" y="1857.58px" style="font-family:'Consolas', monospace;font-size:50px;fill:rgb(221,168,0);">ecx</text>
        <text x="706.148px" y="1857.58px" style="font-family:'Consolas', monospace;font-size:50px;fill:rgb(6,4,4);">= [</text>
        <text x="788.618px" y="1857.58px" style="font-family:'Consolas', monospace;font-size:50px;fill:rgb(221,168,0);">ebp</text>
        <text x="898.579px" y="1857.58px" style="font-family:'Consolas', monospace;font-size:50px;fill:rgb(6,4,4);">-</text>
        <text x="953.56px" y="1857.58px" style="font-family:'Consolas', monospace;font-size:50px;fill:rgb(102,163,116);">4</text>
        <text x="1008.54px" y="1857.58px" style="font-family:'Consolas', monospace;font-size:50px;fill:rgb(6,4,4);">{</text>
        <text x="1036.03px" y="1857.58px" style="font-family:'Consolas', monospace;font-size:50px;fill:rgb(102,163,116);">var_c</text>
        <text x="1173.48px" y="1857.58px" style="font-family:'Consolas', monospace;font-size:50px;fill:rgb(6,4,4);">}].d</text>
    </g>
    <g transform="matrix(0.938952,0,0,1,107.075,-37)">
        <g transform="matrix(0.924565,0,0,1.27848,985.161,-75.5846)">
            <path d="M1090,689.751C1090,678.85 1076.97,670.001 1060.91,670.001L602.086,670.001C586.033,670.001 573,678.85 573,689.751L573,729.25C573,740.15 586.033,749 602.086,749L1060.91,749C1076.97,749 1090,740.15 1090,729.25L1090,689.751Z" style="fill:none;stroke:black;stroke-width:3.81px;"/>
        </g>
        <g transform="matrix(1,0,0,1,43.8997,24.5405)">
            <text x="1543.64px" y="818.129px" style="font-family:'Consolas', monospace;font-size:50px;fill:rgb(6,4,4);">LLIL_SET_REG</text>
        </g>
    </g>
    <g transform="matrix(0.938952,0,0,1,-772.572,181.204)">
        <g transform="matrix(0.924565,0,0,1.27848,985.161,-75.5846)">
            <path d="M1090,689.751C1090,678.85 1076.97,670.001 1060.91,670.001L602.086,670.001C586.033,670.001 573,678.85 573,689.751L573,729.25C573,740.15 586.033,749 602.086,749L1060.91,749C1076.97,749 1090,740.15 1090,729.25L1090,689.751Z" style="fill:none;stroke:rgb(165,165,165);stroke-width:3.81px;"/>
        </g>
        <g transform="matrix(1,0,0,1,71.9586,24.5405)">
            <text x="1543.64px" y="818.129px" style="font-family:'Consolas', monospace;font-size:50px;fill:rgb(165,165,165);">ILRegister</text>
        </g>
    </g>
    <path d="M1529.53,794.5C1529.53,794.5 875.002,774.739 874.29,962.205" style="fill:none;stroke:black;stroke-width:4.17px;"/>
    <g transform="matrix(-1,0,0,1,3507.87,0)">
        <path d="M1529.53,794.5C1529.53,794.5 875.002,774.739 874.29,962.205" style="fill:none;stroke:black;stroke-width:4.17px;"/>
    </g>
    <g transform="matrix(-0.342486,0,0,1,3379.16,439.252)">
        <path d="M1529.53,794.5C1529.53,794.5 875.002,774.739 874.29,962.205" style="fill:none;stroke:black;stroke-width:5.57px;"/>
    </g>
    <g transform="matrix(0.342486,0,0,1,1882.65,439.252)">
        <path d="M1529.53,794.5C1529.53,794.5 875.002,774.739 874.29,962.205" style="fill:none;stroke:black;stroke-width:5.57px;"/>
    </g>
    <g transform="matrix(0.938952,0,0,1,-772.572,1059)">
        <g transform="matrix(0.924565,0,0,1.27848,985.161,-75.5846)">
            <path d="M1090,689.751C1090,678.85 1076.97,670.001 1060.91,670.001L602.086,670.001C586.033,670.001 573,678.85 573,689.751L573,729.25C573,740.15 586.033,749 602.086,749L1060.91,749C1076.97,749 1090,740.15 1090,729.25L1090,689.751Z" style="fill:none;stroke:black;stroke-width:3.81px;"/>
        </g>
        <g transform="matrix(1,0,0,1,168.375,25.6269)">
            <text x="1543.64px" y="818.129px" style="font-family:'Consolas', monospace;font-size:50px;fill:rgb(221,168,0);">ecx</text>
        </g>
    </g>
    <g transform="matrix(0.938952,0,0,1,1432.86,1059)">
        <g transform="matrix(0.924565,0,0,1.27848,985.161,-75.5846)">
            <path d="M1090,689.751C1090,678.85 1076.97,670.001 1060.91,670.001L602.086,670.001C586.033,670.001 573,678.85 573,689.751L573,729.25C573,740.15 586.033,749 602.086,749L1060.91,749C1076.97,749 1090,740.15 1090,729.25L1090,689.751Z" style="fill:none;stroke:black;stroke-width:3.81px;"/>
        </g>
        <g transform="matrix(1,0,0,1,180.228,29.3256)">
            <text x="1543.64px" y="818.129px" style="font-family:'Consolas', monospace;font-size:50px;fill:rgb(102,163,116);">-4</text>
        </g>
    </g>
    <g transform="matrix(0.938952,0,0,1,535.225,840)">
        <g transform="matrix(0.924565,0,0,1.27848,985.161,-75.5846)">
            <path d="M1090,689.751C1090,678.85 1076.97,670.001 1060.91,670.001L602.086,670.001C586.033,670.001 573,678.85 573,689.751L573,729.25C573,740.15 586.033,749 602.086,749L1060.91,749C1076.97,749 1090,740.15 1090,729.25L1090,689.751Z" style="fill:none;stroke:rgb(165,165,165);stroke-width:3.81px;"/>
        </g>
        <g transform="matrix(1,0,0,1,71.9586,25.6391)">
            <text x="1543.64px" y="818.129px" style="font-family:'Consolas', monospace;font-size:50px;fill:rgb(165,165,165);">ILRegister</text>
        </g>
    </g>
    <g transform="matrix(0.938952,0,0,1,535.225,1059)">
        <g transform="matrix(0.924565,0,0,1.27848,985.161,-75.5846)">
            <path d="M1090,689.751C1090,678.85 1076.97,670.001 1060.91,670.001L602.086,670.001C586.033,670.001 573,678.85 573,689.751L573,729.25C573,740.15 586.033,749 602.086,749L1060.91,749C1076.97,749 1090,740.15 1090,729.25L1090,689.751Z" style="fill:none;stroke:black;stroke-width:3.81px;"/>
        </g>
        <g transform="matrix(1,0,0,1.02247,168.949,7.50767)">
            <text x="1543.64px" y="818.129px" style="font-family:'Consolas', monospace;font-size:50px;fill:rgb(221,168,0);">ebp</text>
        </g>
    </g>
    <g transform="matrix(0.938952,0,0,1,984.043,181.204)">
        <g transform="matrix(0.924565,0,0,1.27848,985.161,-75.5846)">
            <path d="M1090,689.751C1090,678.85 1076.97,670.001 1060.91,670.001L602.086,670.001C586.033,670.001 573,678.85 573,689.751L573,729.25C573,740.15 586.033,749 602.086,749L1060.91,749C1076.97,749 1090,740.15 1090,729.25L1090,689.751Z" style="fill:none;stroke:rgb(165,165,165);stroke-width:3.81px;"/>
        </g>
        <g transform="matrix(1,0,0,1,84.6346,24.5405)">
            <text x="1543.64px" y="818.129px" style="font-family:'Consolas', monospace;font-size:50px;fill:rgb(165,165,165);">LLIL_LOAD</text>
        </g>
    </g>
    <g transform="matrix(0.938952,0,0,1,1043.66,400.889)">
        <g transform="matrix(0.924565,0,0,1.27848,921.664,-75.5846)">
            <path d="M1090,689.751C1090,678.85 1076.97,670.001 1060.91,670.001L602.086,670.001C586.033,670.001 573,678.85 573,689.751L573,729.25C573,740.15 586.033,749 602.086,749L1060.91,749C1076.97,749 1090,740.15 1090,729.25L1090,689.751Z" style="fill:none;stroke:black;stroke-width:3.81px;"/>
        </g>
        <g transform="matrix(1,0,0,1,34.8825,24.5405)">
            <text x="1543.64px" y="818.129px" style="font-family:'Consolas', monospace;font-size:50px;fill:rgb(6,4,4);">LLIL_ADD</text>
        </g>
    </g>
    <g transform="matrix(0.938952,0,0,1,1432.86,620.456)">
        <g transform="matrix(0.924565,0,0,1.27848,985.161,-75.5846)">
            <path d="M1090,689.751C1090,678.85 1076.97,670.001 1060.91,670.001L602.086,670.001C586.033,670.001 573,678.85 573,689.751L573,729.25C573,740.15 586.033,749 602.086,749L1060.91,749C1076.97,749 1090,740.15 1090,729.25L1090,689.751Z" style="fill:none;stroke:rgb(165,165,165);stroke-width:3.81px;"/>
        </g>
        <g transform="matrix(1,0,0,1,71.0482,24.5405)">
            <text x="1543.64px" y="818.129px" style="font-family:'Consolas', monospace;font-size:50px;fill:rgb(165,165,165);">LLIL_CONST</text>
        </g>
    </g>
    <g transform="matrix(0.938952,0,0,1,535.225,620.456)">
        <g transform="matrix(0.924565,0,0,1.27848,985.161,-75.5846)">
            <path d="M1090,689.751C1090,678.85 1076.97,670.001 1060.91,670.001L602.086,670.001C586.033,670.001 573,678.85 573,689.751L573,729.25C573,740.15 586.033,749 602.086,749L1060.91,749C1076.97,749 1090,740.15 1090,729.25L1090,689.751Z" style="fill:none;stroke:rgb(165,165,165);stroke-width:3.81px;"/>
        </g>
        <g transform="matrix(1,0,0,1,98.8802,24.5405)">
            <text x="1543.64px" y="818.129px" style="font-family:'Consolas', monospace;font-size:50px;fill:rgb(165,165,165);">LLIL_REG</text>
        </g>
    </g>
    <path d="M874.29,1063.2L874.29,1840" style="fill:none;stroke:black;stroke-width:4.17px;"/>
    <path d="M2630.91,1063.2L2630.91,1181.89" style="fill:none;stroke:black;stroke-width:4.17px;"/>
    <path d="M2182.09,1502.46L2182.09,1621" style="fill:none;stroke:black;stroke-width:4.17px;"/>
    <path d="M2182.09,1722L2182.09,1840" style="fill:none;stroke:black;stroke-width:4.17px;"/>
    <path d="M3079.72,1502.46L3079.72,1840" style="fill:none;stroke:black;stroke-width:4.17px;"/>
    <g transform="matrix(1,0,0,1,602,-623)">
        <text x="396px" y="1429px" style="font-family:'Consolas', monospace;font-size:33.333px;fill:rgb(197,12,10);">il.dest</text>
    </g>
    <g transform="matrix(1,0,0,1,1985,-634.743)">
        <text x="396px" y="1429px" style="font-family:'Consolas', monospace;font-size:33.333px;fill:rgb(197,12,10);">il.src</text>
    </g>
    <g transform="matrix(1,0,0,1,2262,-296.743)">
        <text x="396px" y="1429px" style="font-family:'Consolas', monospace;font-size:33.333px;fill:rgb(197,12,10);">...src.src</text>
    </g>
    <g transform="matrix(1,0,0,1,1600,-137.486)">
        <text x="396px" y="1429px" style="font-family:'Consolas', monospace;font-size:33.333px;fill:rgb(197,12,10);">...src.left</text>
    </g>
    <g transform="matrix(1,0,0,1,2685,-140.758)">
        <text x="396px" y="1429px" style="font-family:'Consolas', monospace;font-size:33.333px;fill:rgb(197,12,10);">...src.right</text>
    </g>
    <g transform="matrix(1,0,0,1,2685,236)">
        <text x="396px" y="1429px" style="font-family:'Consolas', monospace;font-size:33.333px;fill:rgb(197,12,10);">...right.constant</text>
    </g>
    <g transform="matrix(1,0,0,1,1546,147)">
        <text x="396px" y="1429px" style="font-family:'Consolas', monospace;font-size:33.333px;fill:rgb(197,12,10);">...left.src</text>
    </g>
    <g transform="matrix(1,0,0,1,1546,360)">
        <text x="396px" y="1429px" style="font-family:'Consolas', monospace;font-size:33.333px;fill:rgb(197,12,10);">...src.name</text>
    </g>
    <g transform="matrix(1,0,0,1,1566.57,618.729)">
        <text x="396px" y="1429px" style="font-family:'Consolas', monospace;font-size:33.333px;fill:rgb(197,12,10);">il.src.src.left.src.name</text>
    </g>
    <g transform="matrix(1,0,0,1,2456.52,618.729)">
        <text x="396px" y="1429px" style="font-family:'Consolas', monospace;font-size:33.333px;fill:rgb(197,12,10);">il.src.src.right.constant</text>
    </g>
    <g transform="matrix(1,0,0,1,228,1)">
        <text x="396px" y="1429px" style="font-family:'Consolas', monospace;font-size:33.333px;fill:rgb(197,12,10);">...dest.name</text>
    </g>
    <g transform="matrix(1,0,0,1,367.89,618.729)">
        <text x="396px" y="1429px" style="font-family:'Consolas', monospace;font-size:33.333px;fill:rgb(197,12,10);">il.dest.name</text>
    </g>
</svg>
